# xmcd
#
# Track frame offsets:
#	150
#	13371
#	25425
#	35461
#	47437
#	59387
#	71461
#	85022
#	97234
#	109711
#	121093
#	135433
#	149383
#	161267
#	175462
#	187616
#	198326
#	209556
#	222434
#	235357
#	247712
#	261387
#	275653
#	288905
#	299134
#
# Disc length: 4155 seconds
# Revision: 0
# Processed by: cddbd v1.5.2PL0 Copyright (c) Steve Scherf et al.
# Submitted via: dBpowerAMP V12.0
#
DISCID=7b103919
DTITLE=Gene Autry - The Definitive Collection [Disc 2]
DYEAR=1900
DGENRE=hillbilly
TTITLE0=26 South of the Border
TTITLE1=27 Jingle, Jangle, Jingle
TTITLE2=28 San Antonio Rose
TTITLE3=29 Dixie Cannonball
TTITLE4=30 Blueberry Hill
TTITLE5=31 El Rancho Grande
TTITLE6=32 Twilight on the Trail
TTITLE7=33 Gallivantin' Galveston Girl
TTITLE8=34 When It’s Springtime in the Rockies
TTITLE9=35 Rhythm of the Range
TTITLE10=36 The Life of Jimmie Rodgers
TTITLE11=37 The Death of Jimmie Rodgers
TTITLE12=38 Here's to the Ladies
TTITLE13=39 Loaded Pistols and Loaded Dice
TTITLE14=40 You Waited Too Long
TTITLE15=41 Silver Spurs (On the Golden Stairs)
TTITLE16=42 Lonely River
TTITLE17=43 Take Me Back into Your Heart
TTITLE18=44 You're the Only Star (In My Blue Heaven)
TTITLE19=45 You're Not My Darlin' Anymore
TTITLE20=46 Rainbow Valley (With Jimmy Long)
TTITLE21=47 Nobody's Darling but Mine
TTITLE22=48 Rudolph the Red-Nosed Reindeer
TTITLE23=49 Here Comes Santa Claus
TTITLE24=50 Back in the Saddle Again (Alternate Take)
EXTD=
EXTT0=
EXTT1=
EXTT2=
EXTT3=
EXTT4=
EXTT5=
EXTT6=
EXTT7=
EXTT8=
EXTT9=
EXTT10=
EXTT11=
EXTT12=
EXTT13=
EXTT14=
EXTT15=
EXTT16=
EXTT17=
EXTT18=
EXTT19=
EXTT20=
EXTT21=
EXTT22=
EXTT23=
EXTT24=
PLAYORDER=
